<svg width="24" height="24" viewBox="0 0 24 24" fill="none" xmlns="http://www.w3.org/2000/svg">
<g id="bad">
<g id="Vector">
<path d="M24 12C24 18.6274 18.6274 24 12 24C5.37258 24 0 18.6274 0 12C0 5.37258 5.37258 0 12 0C18.6274 0 24 5.37258 24 12Z" fill="#ED5565"/>
<path d="M12.4006 12.5335C12.4006 13.1963 11.8634 13.7335 11.2006 13.7335C10.5379 13.7335 10.0006 13.1963 10.0006 12.5335C10.0006 11.8708 10.5379 11.3335 11.2006 11.3335C11.8634 11.3335 12.4006 11.8708 12.4006 12.5335Z" fill="#434A54"/>
<path d="M18.4006 12.5335C18.4006 13.1963 17.8634 13.7335 17.2006 13.7335C16.5379 13.7335 16.0006 13.1963 16.0006 12.5335C16.0006 11.8708 16.5379 11.3335 17.2006 11.3335C17.8634 11.3335 18.4006 11.8708 18.4006 12.5335Z" fill="#434A54"/>
<path fill-rule="evenodd" clip-rule="evenodd" d="M17.6307 18.6076C17.2586 18.8458 16.7638 18.7373 16.5256 18.3652C16.1562 17.7882 15.4882 17.1571 14.7144 16.9823C14.033 16.8284 13.0353 16.9784 11.8143 18.4456C11.5316 18.7852 11.0272 18.8314 10.6876 18.5488C10.348 18.2661 10.3018 17.7617 10.5844 17.4221C12.0765 15.6293 13.6439 15.1002 15.0669 15.4217C16.3975 15.7222 17.3729 16.7212 17.8731 17.5025C18.1113 17.8746 18.0028 18.3694 17.6307 18.6076Z" fill="#434A54"/>
</g>
</g>
</svg>
