<svg width="24" height="24" viewBox="0 0 24 24" fill="none" xmlns="http://www.w3.org/2000/svg">
<g id="soso">
<g id="Vector">
<path d="M24 12C24 18.6274 18.6274 24 12 24C5.37258 24 0 18.6274 0 12C0 5.37258 5.37258 0 12 0C18.6274 0 24 5.37258 24 12Z" fill="#FFCE54"/>
<path d="M10.3994 8.53291C10.3994 9.19565 9.86211 9.73291 9.19937 9.73291C8.53663 9.73291 7.99937 9.19565 7.99937 8.53291C7.99937 7.87017 8.53663 7.33291 9.19937 7.33291C9.86211 7.33291 10.3994 7.87017 10.3994 8.53291Z" fill="#575656"/>
<path d="M16.3994 8.53291C16.3994 9.19565 15.8621 9.73291 15.1994 9.73291C14.5366 9.73291 13.9994 9.19565 13.9994 8.53291C13.9994 7.87017 14.5366 7.33291 15.1994 7.33291C15.8621 7.33291 16.3994 7.87017 16.3994 8.53291Z" fill="#575656"/>
<path fill-rule="evenodd" clip-rule="evenodd" d="M8.4141 11.9845C8.49677 11.5505 8.91563 11.2657 9.34965 11.3483C10.7618 11.6173 11.4712 11.7342 12.1749 11.7342C12.8803 11.7342 13.6072 11.6168 15.0537 11.3477C15.488 11.2669 15.9057 11.5535 15.9865 11.9879C16.0673 12.4223 15.7807 12.8399 15.3463 12.9207C13.9261 13.1849 13.053 13.3342 12.1749 13.3342C11.2953 13.3342 10.4381 13.1844 9.0503 12.9201C8.61627 12.8374 8.33144 12.4185 8.4141 11.9845Z" fill="#575656"/>
</g>
</g>
</svg>
