<svg width="24" height="24" viewBox="0 0 24 24" fill="none" xmlns="http://www.w3.org/2000/svg">
<g id="good">
<g id="Vector">
<path d="M24 12C24 18.6274 18.6274 24 12 24C5.37258 24 0 18.6274 0 12C0 5.37258 5.37258 0 12 0C18.6274 0 24 5.37258 24 12Z" fill="#A0D468"/>
<path d="M9.60061 5.99939C9.60061 6.66214 9.06335 7.1994 8.40061 7.1994C7.73786 7.1994 7.2006 6.66214 7.2006 5.99939C7.2006 5.33665 7.73786 4.7994 8.40061 4.7994C9.06335 4.7994 9.60061 5.33665 9.60061 5.99939Z" fill="#575656"/>
<path d="M15.6006 5.99939C15.6006 6.66214 15.0633 7.1994 14.4006 7.1994C13.7379 7.1994 13.2006 6.66214 13.2006 5.99939C13.2006 5.33665 13.7379 4.7994 14.4006 4.7994C15.0633 4.7994 15.6006 5.33665 15.6006 5.99939Z" fill="#575656"/>
<path fill-rule="evenodd" clip-rule="evenodd" d="M7.96837 8.92654C8.34048 8.68832 8.83525 8.79687 9.07346 9.16897C9.44284 9.74597 10.1109 10.377 10.8847 10.5518C11.566 10.7058 12.5638 10.5557 13.7848 9.08856C14.0674 8.74895 14.5718 8.70276 14.9114 8.98539C15.251 9.26802 15.2972 9.77244 15.0146 10.112C13.5226 11.9049 11.9551 12.434 10.5321 12.1125C9.20159 11.8119 8.22612 10.813 7.72593 10.0316C7.48772 9.65952 7.59626 9.16475 7.96837 8.92654Z" fill="#575656"/>
</g>
</g>
</svg>
