<svg width="57" height="57" viewBox="0 0 57 57" fill="none" xmlns="http://www.w3.org/2000/svg">
<circle cx="28.5" cy="28.5" r="28" fill="white" stroke="#CCD1D9"/>
<path d="M33.561 35.0214C33.3523 35.2228 33.128 35.4074 32.8902 35.5734C32.2823 36.0081 31.6112 36.347 30.9004 36.5781C30.2902 36.7758 29.6598 36.9042 29.0209 36.961C28.5411 37.0061 28.0583 37.0122 27.5774 36.9791C26.4774 36.8999 25.4049 36.598 24.425 36.0916C23.4452 35.5853 22.5785 34.885 21.8776 34.0335C21.5056 33.5858 21.1841 33.0985 20.919 32.5802C20.9007 32.5556 20.8874 32.5276 20.8799 32.4978L20.9623 32.4405L23.5167 30.4576C23.5544 30.5555 23.5908 30.6533 23.6299 30.7497C23.785 31.1354 23.9878 31.5002 24.2336 31.8354C24.5679 32.2962 24.9803 32.6948 25.4521 33.0134C25.9854 33.3805 26.5893 33.6327 27.2253 33.754C28.1471 33.9311 29.0994 33.8607 29.9851 33.55C30.3236 33.4329 30.6451 33.2713 30.9409 33.0693C30.9591 33.0567 30.9786 33.0456 30.9982 33.0344L31.4803 33.4089L32.6653 34.3269L33.561 35.0214Z" fill="#38A153"/>
<path d="M33.5611 35.0211L32.6598 34.3224L31.4748 33.4044L30.9927 33.0299C31.2034 32.8754 31.4016 32.7044 31.5852 32.5184C31.9388 32.1519 32.2208 31.7226 32.4166 31.2524C32.5262 30.993 32.6046 30.7214 32.65 30.4434C32.657 30.3972 32.65 30.3777 32.5969 30.3777C32.0142 30.3777 31.4329 30.3777 30.8502 30.3777H28.2287C28.1714 30.3777 28.1519 30.3651 28.1519 30.3036C28.1519 29.3422 28.1519 28.3813 28.1519 27.4209C28.1519 27.3594 28.1714 27.3468 28.2287 27.3468C29.1174 27.3468 30.0062 27.3468 30.8949 27.3468H33.5499C34.2835 27.3468 35.0185 27.3468 35.7535 27.3468C35.808 27.3468 35.829 27.3608 35.8416 27.4167C35.9653 28.011 36.0169 28.6181 35.9953 29.2249C35.9827 29.984 35.8766 30.7386 35.6795 31.4718C35.5073 32.1118 35.2547 32.7273 34.9277 33.3038C34.569 33.9343 34.1167 34.5067 33.5862 35.0016C33.5785 35.0089 33.5701 35.0155 33.5611 35.0211Z" fill="#4779BD"/>
<path d="M23.5112 30.4518L20.9624 32.4402L20.8855 32.5017C20.852 32.5017 20.852 32.4626 20.8408 32.4416C20.5 31.7481 20.2587 31.01 20.124 30.2492C20.0616 29.8864 20.0228 29.52 20.008 29.1522C19.9879 28.7165 20.0057 28.2798 20.0611 27.8471C20.1724 26.9319 20.4394 26.0425 20.8506 25.2173L20.873 25.174C20.8939 25.1823 20.9051 25.2117 20.9344 25.2019C20.9344 25.2159 20.9344 25.2229 20.9512 25.2271C21.1007 25.3444 21.2488 25.4632 21.3998 25.5792L21.819 25.9048C21.8217 25.9108 21.8257 25.916 21.8308 25.9201C21.8359 25.9243 21.8419 25.9271 21.8483 25.9285L22.0901 26.1144C22.0937 26.1217 22.099 26.128 22.1056 26.1329C22.1121 26.1377 22.1197 26.141 22.1278 26.1423C22.3206 26.303 22.5218 26.4539 22.7217 26.6062C22.7243 26.6113 22.7281 26.6157 22.7327 26.6191C22.7373 26.6225 22.7426 26.6248 22.7482 26.6258C22.9131 26.76 23.0808 26.8899 23.2513 27.0157C23.2549 27.023 23.2602 27.0293 23.2668 27.0342C23.2733 27.039 23.2809 27.0423 23.289 27.0436L23.5056 27.2183C23.4651 27.3874 23.4106 27.5537 23.3728 27.7241C23.1732 28.604 23.2157 29.5215 23.4958 30.3791C23.5065 30.4018 23.5117 30.4267 23.5112 30.4518Z" fill="#F0B61A"/>
<path d="M33.5917 22.7706C33.4897 22.6812 33.3919 22.5876 33.2843 22.5065L33.2451 22.4716C33.0836 22.3344 32.9147 22.2062 32.7393 22.0873L32.7016 22.0621C32.4629 21.8914 32.2121 21.7382 31.9512 21.6038C31.9016 21.5672 31.8464 21.5389 31.7877 21.52C31.5104 21.3734 31.2222 21.2487 30.9255 21.1469C30.9157 21.1343 30.9004 21.1371 30.8878 21.1343C30.6021 21.0275 30.3087 20.9425 30.0102 20.88H29.9851C29.9269 20.8604 29.867 20.8464 29.8062 20.8381C29.5714 20.7892 29.3339 20.7542 29.095 20.7333H29.067C29.0572 20.7193 29.0433 20.7221 29.0293 20.7249C28.8948 20.7086 28.7595 20.6993 28.6241 20.6969C28.6042 20.6929 28.5842 20.6901 28.564 20.6885C28.3041 20.6802 28.0441 20.6802 27.7842 20.6885C27.7617 20.69 27.7393 20.6928 27.7172 20.6969C27.577 20.6991 27.4371 20.7085 27.298 20.7249C27.276 20.7218 27.2537 20.7252 27.2337 20.7347C26.948 20.7644 26.6643 20.8111 26.3841 20.8744C26.3825 20.8737 26.3808 20.8734 26.3792 20.8735C26.3775 20.8736 26.3758 20.8741 26.3744 20.8749C26.3729 20.8757 26.3716 20.8768 26.3706 20.8782C26.3697 20.8795 26.369 20.8811 26.3687 20.8828H26.345L26.2318 20.9079C25.9685 20.9682 25.7094 21.0457 25.4562 21.1399C25.4423 21.1399 25.4283 21.1399 25.4171 21.1525C25.1224 21.2536 24.8348 21.3745 24.5563 21.5144L24.5158 21.5353C24.4826 21.5471 24.4514 21.564 24.4236 21.5856C24.4036 21.5879 24.3849 21.5968 24.3705 21.6108C24.1231 21.7347 23.8841 21.8748 23.655 22.03L23.6285 22.051C23.4263 22.178 23.2326 22.3181 23.0486 22.4702L23.008 22.5051C22.9122 22.5763 22.8211 22.6538 22.7356 22.7371C22.7209 22.7418 22.7085 22.7517 22.7006 22.765C22.4835 22.9589 22.2777 23.1651 22.0844 23.3827C22.0714 23.3908 22.0616 23.4031 22.0564 23.4176C21.9765 23.4987 21.9027 23.5855 21.8357 23.6775C21.8209 23.6874 21.8089 23.7008 21.8007 23.7166C21.6505 23.8983 21.5106 24.0881 21.3815 24.2854L21.3578 24.3231C21.1951 24.5583 21.0494 24.8049 20.9218 25.0609C20.8956 25.0945 20.8752 25.1323 20.8617 25.1727C20.8827 25.1811 20.8938 25.2104 20.9232 25.2006C20.9232 25.2146 20.9232 25.2216 20.9399 25.2258C21.0895 25.3432 21.2376 25.4619 21.3885 25.5779L21.8077 25.9035C21.8104 25.9095 21.8145 25.9147 21.8196 25.9189C21.8247 25.923 21.8306 25.9259 21.8371 25.9273L22.0788 26.1131C22.0827 26.1202 22.0881 26.1264 22.0946 26.1312C22.1011 26.1361 22.1086 26.1394 22.1165 26.1411C22.3094 26.3018 22.5106 26.4527 22.7104 26.605C22.7131 26.61 22.7168 26.6144 22.7214 26.6178C22.726 26.6212 22.7313 26.6235 22.737 26.6245C22.9018 26.7587 23.0695 26.8886 23.24 27.0144H23.567C23.5917 26.9671 23.6118 26.9175 23.6271 26.8663L23.6592 26.8006C23.7614 26.5717 23.8781 26.3495 24.0086 26.1355L24.0239 26.1117L24.1106 25.9859C24.2404 25.7987 24.3803 25.6186 24.5298 25.4466L24.5521 25.42L24.7366 25.2328L24.7743 25.1964C24.9791 25.0034 25.1977 24.8255 25.4283 24.664L25.466 24.6403C25.64 24.5259 25.8206 24.4219 26.0068 24.3287L26.0627 24.2979L26.3422 24.1736C26.3491 24.1741 26.3561 24.1732 26.3626 24.1708C26.3691 24.1684 26.375 24.1645 26.3799 24.1596C26.6629 24.0547 26.954 23.9734 27.2504 23.9165C27.2683 23.9196 27.2867 23.9161 27.3021 23.9067C27.5877 23.8595 27.8763 23.8338 28.1657 23.8298H28.1909C28.4718 23.8352 28.752 23.8609 29.0293 23.9067C29.0486 23.9167 29.0707 23.9202 29.0922 23.9165C29.3906 23.9793 29.6832 24.0672 29.9669 24.1792L30.0074 24.1973L30.2394 24.3021L30.3037 24.3357C30.5003 24.4389 30.6898 24.5552 30.871 24.6836L30.9073 24.7088C31.0345 24.8094 31.1631 24.9086 31.2818 25.0204C31.3028 25.0399 31.3168 25.0455 31.3405 25.0204C31.4873 24.8806 31.6368 24.7283 31.7849 24.583L31.8226 24.5467C31.8981 24.474 31.9763 24.4069 32.0462 24.3245C32.0518 24.3225 32.057 24.3194 32.0613 24.3153C32.0657 24.3112 32.0691 24.3062 32.0714 24.3007C32.2851 24.0995 32.4906 23.8941 32.7016 23.6845L32.7239 23.6635C32.8103 23.5876 32.8924 23.5069 32.9699 23.4218C32.9758 23.4201 32.9813 23.4171 32.9859 23.413C32.9905 23.4089 32.9941 23.4037 32.9964 23.398L33.5875 22.8251C33.6112 22.8055 33.614 22.7986 33.5917 22.7706Z" fill="#DD4335"/>
<path d="M23.2875 27.0438L23.5041 27.2185C23.5289 27.1663 23.549 27.1121 23.5642 27.0564C23.5767 27.0466 23.5739 27.0313 23.5767 27.0187H23.2498C23.2537 27.0255 23.2592 27.0312 23.2657 27.0356C23.2723 27.04 23.2797 27.0428 23.2875 27.0438Z" fill="#DD4335"/>
</svg>
