<svg width="57" height="57" viewBox="0 0 57 57" fill="none" xmlns="http://www.w3.org/2000/svg">
<circle cx="28.5" cy="28.5" r="28.5" fill="#FEE500"/>
<path d="M28.5065 21C23.8094 21 20 23.9718 20 27.6344C20 29.9068 21.4673 31.9135 23.69 33.1074L22.7849 36.5434C22.7667 36.6149 22.7704 36.6903 22.7957 36.7596C22.8209 36.829 22.8665 36.889 22.9263 36.9319C22.9862 36.9748 23.0576 36.9985 23.1311 36.9999C23.2046 37.0014 23.2769 36.9804 23.3384 36.9399L27.3843 34.2121C27.7536 34.249 28.1245 34.2672 28.4957 34.2666C33.1906 34.2666 37 31.2969 37 27.6344C37 23.9718 33.2015 21 28.5065 21Z" fill="#181600"/>
</svg>
