<svg width="76" height="76" viewBox="0 0 76 76" fill="none" xmlns="http://www.w3.org/2000/svg">
<g id="profile">
<circle id="Ellipse 100" cx="38" cy="38" r="38" fill="#F2EBFD"/>
<mask id="mask0_1_1221" style="mask-type:alpha" maskUnits="userSpaceOnUse" x="0" y="0" width="76" height="76">
<circle id="Ellipse 101" cx="38" cy="38" r="38" fill="#F2EBFD"/>
</mask>
<g mask="url(#mask0_1_1221)">
<g id="person">
<mask id="mask1_1_1221" style="mask-type:alpha" maskUnits="userSpaceOnUse" x="-7" y="2" width="90" height="90">
<rect id="Bounding box" x="-7" y="2" width="90" height="90" fill="#D9D9D9"/>
</mask>
<g mask="url(#mask1_1_1221)">
<path id="person_2" d="M38 47.0001C33.875 47.0001 30.3438 45.5314 27.4062 42.5939C24.4688 39.6564 23 36.1251 23 32.0001C23 27.8751 24.4688 24.3439 27.4062 21.4064C30.3438 18.4689 33.875 17.0001 38 17.0001C42.125 17.0001 45.6562 18.4689 48.5938 21.4064C51.5312 24.3439 53 27.8751 53 32.0001C53 36.1251 51.5312 39.6564 48.5938 42.5939C45.6562 45.5314 42.125 47.0001 38 47.0001ZM8 77.0001V66.5001C8 64.3751 8.54687 62.422 9.64062 60.6407C10.7344 58.8595 12.1875 57.5001 14 56.5626C17.875 54.6251 21.8125 53.172 25.8125 52.2032C29.8125 51.2345 33.875 50.7501 38 50.7501C42.125 50.7501 46.1875 51.2345 50.1875 52.2032C54.1875 53.172 58.125 54.6251 62 56.5626C63.8125 57.5001 65.2656 58.8595 66.3594 60.6407C67.4531 62.422 68 64.3751 68 66.5001V77.0001H8Z" fill="#C0B6CF"/>
</g>
</g>
</g>
</g>
</svg>
