<svg width="60" height="60" viewBox="0 0 60 60" fill="none" xmlns="http://www.w3.org/2000/svg">
<g id="btn_rotate">
<g id="Ellipse 10" filter="url(#filter0_ii_1_1618)">
<circle cx="30" cy="30" r="30" fill="#5EE1D7"/>
</g>
<g id="cached">
<mask id="mask0_1_1618" style="mask-type:alpha" maskUnits="userSpaceOnUse" x="7" y="7" width="46" height="46">
<rect id="Bounding box" x="7.5" y="7.5" width="45" height="45" fill="#D9D9D9"/>
</mask>
<g mask="url(#mask0_1_1618)">
<path id="cached_2" d="M30.0961 44.9949C25.9086 44.9949 22.3461 43.5417 19.4086 40.6355C16.4711 37.7292 15.0024 34.1824 15.0024 29.9949V29.6667L12.0024 32.6667L9.37738 30.0417L16.8774 22.5417L24.3774 30.0417L21.7524 32.6667L18.7524 29.6667V29.9949C18.7524 33.1199 19.8539 35.7761 22.0571 37.9636C24.2602 40.1511 26.9399 41.2449 30.0961 41.2449C30.9086 41.2449 31.7055 41.1511 32.4868 40.9636C33.268 40.7761 34.0336 40.4949 34.7836 40.1199L37.5961 42.9324C36.4086 43.6199 35.1899 44.1355 33.9399 44.4792C32.6899 44.823 31.4086 44.9949 30.0961 44.9949ZM43.1274 37.448L35.6274 29.948L38.2524 27.323L41.2524 30.323V29.9949C41.2524 26.8699 40.1508 24.2136 37.9477 22.0261C35.7446 19.8386 33.0649 18.7449 29.9086 18.7449C29.0961 18.7449 28.2993 18.8386 27.518 19.0261C26.7368 19.2136 25.9711 19.4949 25.2211 19.8699L22.4086 17.0574C23.5961 16.3699 24.8149 15.8542 26.0649 15.5105C27.3149 15.1667 28.5961 14.9949 29.9086 14.9949C34.0961 14.9949 37.6586 16.448 40.5961 19.3542C43.5336 22.2605 45.0024 25.8074 45.0024 29.9949V30.323L48.0024 27.323L50.6274 29.948L43.1274 37.448Z" fill="white"/>
</g>
</g>
</g>
<defs>
<filter id="filter0_ii_1_1618" x="-1" y="-1" width="61.5" height="61.5" filterUnits="userSpaceOnUse" color-interpolation-filters="sRGB">
<feFlood flood-opacity="0" result="BackgroundImageFix"/>
<feBlend mode="normal" in="SourceGraphic" in2="BackgroundImageFix" result="shape"/>
<feColorMatrix in="SourceAlpha" type="matrix" values="0 0 0 0 0 0 0 0 0 0 0 0 0 0 0 0 0 0 127 0" result="hardAlpha"/>
<feOffset dx="-1" dy="-1"/>
<feGaussianBlur stdDeviation="1"/>
<feComposite in2="hardAlpha" operator="arithmetic" k2="-1" k3="1"/>
<feColorMatrix type="matrix" values="0 0 0 0 0.152587 0 0 0 0 0.779167 0 0 0 0 0.731336 0 0 0 0.7 0"/>
<feBlend mode="normal" in2="shape" result="effect1_innerShadow_1_1618"/>
<feColorMatrix in="SourceAlpha" type="matrix" values="0 0 0 0 0 0 0 0 0 0 0 0 0 0 0 0 0 0 127 0" result="hardAlpha"/>
<feOffset dx="0.5" dy="0.5"/>
<feGaussianBlur stdDeviation="0.5"/>
<feComposite in2="hardAlpha" operator="arithmetic" k2="-1" k3="1"/>
<feColorMatrix type="matrix" values="0 0 0 0 1 0 0 0 0 1 0 0 0 0 1 0 0 0 0.25 0"/>
<feBlend mode="normal" in2="effect1_innerShadow_1_1618" result="effect2_innerShadow_1_1618"/>
</filter>
</defs>
</svg>
