<svg width="16" height="22" viewBox="0 0 16 22" fill="none" xmlns="http://www.w3.org/2000/svg">
<path d="M2.00031 22.0001C1.45031 22.0001 0.979472 21.8042 0.587805 21.4126C0.196139 21.0209 0.000305176 20.5501 0.000305176 20.0001V9.00006C0.000305176 8.45006 0.196139 7.97923 0.587805 7.58756C0.979472 7.1959 1.45031 7.00006 2.00031 7.00006H5.00031V9.00006H2.00031V20.0001H14.0003V9.00006H11.0003V7.00006H14.0003C14.5503 7.00006 15.0211 7.1959 15.4128 7.58756C15.8045 7.97923 16.0003 8.45006 16.0003 9.00006V20.0001C16.0003 20.5501 15.8045 21.0209 15.4128 21.4126C15.0211 21.8042 14.5503 22.0001 14.0003 22.0001H2.00031ZM7.00031 15.0001V3.82506L5.40031 5.42506L4.00031 4.00006L8.00031 6.10352e-05L12.0003 4.00006L10.6003 5.42506L9.00031 3.82506V15.0001H7.00031Z" fill="black"/>
</svg>
