<svg width="24" height="24" viewBox="0 0 24 24" fill="none" xmlns="http://www.w3.org/2000/svg">
<g id="btn_kakao">
<circle id="Ellipse 96" cx="12" cy="12" r="12" fill="#FEE500"/>
<g id="btn_kakao_2">
<path id="ico_kakao" d="M12.3376 7.33337C9.20621 7.33337 6.66663 9.31461 6.66663 11.7563C6.66663 13.2713 7.64483 14.609 9.12662 15.405L8.5232 17.6956C8.51106 17.7433 8.51358 17.7936 8.53041 17.8398C8.54724 17.886 8.5776 17.926 8.61751 17.9546C8.65742 17.9832 8.70501 17.999 8.75403 18C8.80305 18.0009 8.85121 17.987 8.8922 17.96L11.5895 16.1414C11.8357 16.1661 12.083 16.1782 12.3304 16.1777C15.4604 16.1777 18 14.198 18 11.7563C18 9.31461 15.4676 7.33337 12.3376 7.33337Z" fill="#181600"/>
</g>
</g>
</svg>
